<?xml version="1.0" encoding="UTF-8"?>
<svg xmlns="http://www.w3.org/2000/svg" xmlns:xlink="http://www.w3.org/1999/xlink" width="149px" height="150px" viewBox="0 0 459 460" version="1.1">
<g id="surface1">
<path style=" stroke:none;fill-rule:nonzero;fill:rgb(25.882353%,23.137255%,23.137255%);fill-opacity:1;" d="M 217.449219 0 L 241.199219 0 C 241.992188 0.742188 242.972656 0.777344 243.980469 0.757812 C 248.730469 0.644531 253.433594 1.394531 258.132812 1.902344 C 263.117188 2.441406 268.0625 3.339844 273.003906 4.28125 C 281.632812 5.9375 290.140625 8.011719 298.507812 10.632812 C 307.40625 13.425781 316.144531 16.707031 324.609375 20.628906 C 371.421875 42.375 407.15625 75.929688 431.828125 121.222656 C 436.667969 130.113281 440.738281 139.351562 444.292969 148.816406 C 445.910156 153.125 447.375 157.488281 448.722656 161.882812 C 450.011719 166.117188 451.175781 170.382812 452.222656 174.6875 C 453.339844 179.285156 454.351562 183.90625 455.175781 188.550781 C 455.835938 192.269531 456.332031 196.023438 456.757812 199.789062 C 457.296875 204.542969 457.980469 209.277344 458.09375 214.070312 C 458.125 215.46875 458.316406 216.832031 458.859375 218.128906 L 458.859375 241.851562 C 458.355469 243.09375 458.019531 244.386719 458.117188 245.730469 C 458.304688 248.425781 457.890625 251.089844 457.628906 253.742188 C 457.074219 259.335938 456.25 264.898438 455.28125 270.4375 C 454.226562 276.480469 452.996094 282.472656 451.480469 288.402344 C 449.613281 295.71875 447.285156 302.894531 444.691406 309.992188 C 442.117188 317.023438 439.277344 323.933594 435.949219 330.636719 C 410.679688 381.503906 372.050781 418.433594 320.035156 441.363281 C 308.484375 446.453125 296.511719 450.378906 284.277344 453.378906 C 277.929688 454.9375 271.511719 456.316406 264.984375 457.167969 C 260.199219 457.796875 255.417969 458.585938 250.628906 459.144531 C 245.484375 459.746094 240.269531 459.730469 235.089844 459.984375 L 223.933594 459.984375 C 219.667969 459.414062 215.359375 459.691406 211.070312 459.28125 C 206.664062 458.863281 202.285156 458.292969 197.882812 457.8125 C 192.015625 457.167969 186.242188 455.992188 180.5 454.742188 C 174.953125 453.53125 169.453125 452.109375 164 450.453125 C 157.59375 448.5 151.207031 446.445312 144.992188 443.984375 C 139.175781 441.683594 133.460938 439.078125 127.871094 436.234375 C 72.015625 407.800781 33.621094 364.011719 12.472656 305.132812 C 9.488281 296.835938 7.316406 288.277344 5.390625 279.648438 C 3.824219 272.648438 2.617188 265.601562 1.722656 258.511719 C 1.101562 253.597656 0.425781 248.640625 0.539062 243.648438 C 0.554688 243.054688 0.824219 242.320312 0.164062 241.835938 L 0.164062 218.113281 C 1.167969 215.632812 0.40625 213 0.855469 210.429688 C 1.542969 206.492188 1.4375 202.410156 2.0625 198.449219 C 2.9375 192.855469 3.925781 187.277344 5.058594 181.71875 C 6.339844 175.429688 8.019531 169.261719 9.796875 163.121094 C 11.792969 156.238281 14.257812 149.515625 17 142.878906 C 33.566406 102.707031 59.390625 69.765625 94.390625 44.023438 C 119.472656 25.570312 147.359375 13.113281 177.570312 5.839844 C 183.820312 4.335938 190.199219 3.308594 196.601562 2.441406 C 202.496094 1.640625 208.378906 1.035156 214.308594 0.703125 C 215.375 0.644531 216.519531 0.652344 217.464844 -0.0234375 Z M 381.917969 216.359375 C 398.347656 216.359375 414.773438 216.34375 431.203125 216.390625 C 432.582031 216.390625 433.296875 216.070312 432.9375 214.617188 C 432.402344 212.445312 432.636719 210.226562 432.410156 208.035156 C 431.535156 199.601562 430.066406 191.28125 428.226562 183.015625 C 425.851562 172.316406 422.472656 161.90625 418.339844 151.777344 C 415.53125 144.894531 412.335938 138.148438 408.582031 131.683594 C 404.585938 124.8125 400.550781 117.980469 395.800781 111.566406 C 392.644531 107.304688 389.570312 103 386.195312 98.878906 C 383.035156 95.023438 379.621094 91.414062 376.300781 87.714844 C 372.839844 83.859375 368.917969 80.460938 365.003906 77.050781 C 361.746094 74.207031 358.535156 71.285156 355.101562 68.65625 C 349.390625 64.300781 343.5 60.195312 337.410156 56.363281 C 329.285156 51.25 320.859375 46.671875 312.082031 42.808594 C 305.539062 39.925781 298.851562 37.367188 292.015625 35.171875 C 285.410156 33.050781 278.722656 31.332031 271.976562 29.789062 C 264.179688 28.011719 256.257812 27.113281 248.328125 26.222656 C 241.707031 25.480469 235.050781 25.378906 228.402344 25.414062 C 218.117188 25.472656 207.914062 26.28125 197.734375 27.945312 C 191.429688 28.972656 185.15625 30.078125 178.980469 31.660156 C 160.671875 36.355469 143.3125 43.371094 126.96875 52.894531 C 114.527344 60.152344 102.863281 68.492188 92.285156 78.242188 C 84.46875 85.4375 77.054688 93.070312 70.402344 101.410156 C 64.925781 108.277344 59.773438 115.375 55.269531 122.902344 C 48.117188 134.84375 42.007812 147.3125 37.40625 160.484375 C 35.605469 165.628906 34.023438 170.824219 32.75 176.132812 C 32.179688 178.523438 31.3125 180.917969 30.839844 183.324219 C 30.238281 186.414062 29.496094 189.484375 28.875 192.570312 C 27.4375 199.667969 26.738281 206.851562 26.101562 214.039062 C 25.898438 216.34375 25.980469 216.351562 28.320312 216.351562 C 60.695312 216.351562 93.074219 216.332031 125.449219 216.40625 C 127.382812 216.40625 127.90625 215.8125 128.207031 214.023438 C 132.613281 187.6875 145.785156 166.445312 166.394531 149.777344 C 173.695312 143.867188 181.894531 139.269531 190.71875 135.832031 C 204.773438 130.351562 219.242188 127.777344 234.367188 128.554688 C 241.183594 128.90625 247.878906 129.761719 254.449219 131.378906 C 271.25 135.511719 286.0625 143.507812 298.785156 155.183594 C 316.242188 171.199219 326.96875 190.960938 330.851562 214.355469 C 331.121094 215.972656 331.683594 216.40625 333.339844 216.398438 C 349.53125 216.324219 365.71875 216.351562 381.910156 216.351562 Z M 76.941406 243.625 C 60.515625 243.625 44.085938 243.640625 27.660156 243.59375 C 26.371094 243.59375 25.90625 243.804688 26.011719 245.234375 C 26.304688 249.082031 26.714844 252.917969 27.144531 256.75 C 27.75 262.234375 28.808594 267.632812 29.925781 273.023438 C 32.554688 285.738281 36.429688 298.070312 41.507812 310.019531 C 53.425781 338.117188 70.765625 362.363281 93.523438 382.714844 C 116.429688 403.195312 142.667969 417.746094 172.144531 426.46875 C 179.152344 428.542969 186.257812 430.226562 193.441406 431.507812 C 199.007812 432.503906 204.625 433.335938 210.289062 433.867188 C 214.832031 434.292969 219.40625 434.652344 223.925781 434.699219 C 228.460938 434.742188 233.035156 434.691406 237.59375 434.527344 C 242.398438 434.351562 247.164062 433.980469 251.949219 433.46875 C 257.800781 432.847656 263.597656 431.90625 269.347656 430.730469 C 314.203125 421.554688 351.878906 399.832031 382.359375 365.738281 C 398.386719 347.8125 410.664062 327.542969 419.480469 305.183594 C 422.074219 298.609375 424.316406 291.921875 426.152344 285.09375 C 428.363281 276.863281 430.117188 268.550781 431.265625 260.082031 C 431.9375 255.105469 432.253906 250.101562 432.964844 245.136719 C 433.125 244.066406 432.929688 243.578125 431.625 243.578125 C 398.707031 243.617188 365.800781 243.617188 332.882812 243.578125 C 331.683594 243.578125 331.390625 244.027344 331.234375 245.054688 C 330.835938 247.644531 330.457031 250.242188 329.886719 252.796875 C 324.984375 274.8125 314 293.253906 297.105469 308.171875 C 288.078125 316.140625 277.890625 322.226562 266.675781 326.605469 C 257.285156 330.277344 247.523438 332.484375 237.515625 333.371094 C 233.972656 333.683594 230.335938 333.757812 226.699219 333.578125 C 221.25 333.308594 215.882812 332.785156 210.515625 331.78125 C 171.640625 324.480469 140.027344 295.136719 130.117188 256.960938 C 129.152344 253.230469 127.984375 249.472656 127.675781 245.667969 C 127.496094 243.40625 126.648438 243.585938 125.148438 243.59375 C 109.085938 243.617188 93.011719 243.609375 76.949219 243.609375 Z M 229.308594 296.59375 C 247.546875 296.96875 264.765625 288.71875 275.679688 277.695312 C 290.558594 262.675781 296.933594 244.523438 294.8125 223.570312 C 293.273438 208.394531 286.953125 195.25 276.070312 184.507812 C 261.207031 169.828125 243.167969 163.621094 222.441406 165.636719 C 207.203125 167.117188 194.007812 173.402344 183.183594 184.25 C 168.800781 198.671875 162.246094 216.226562 163.898438 236.472656 C 166.640625 270.167969 195.066406 296.640625 229.300781 296.59375 Z M 229.308594 296.59375 "/>
<path style=" stroke:none;fill-rule:nonzero;fill:rgb(100%,41.960784%,34.117647%);fill-opacity:1;" d="M 381.910156 216.359375 C 365.71875 216.359375 349.53125 216.332031 333.339844 216.40625 C 331.683594 216.414062 331.121094 215.980469 330.851562 214.359375 C 326.960938 190.96875 316.234375 171.207031 298.785156 155.191406 C 286.0625 143.515625 271.25 135.519531 254.449219 131.386719 C 247.878906 129.769531 241.183594 128.90625 234.367188 128.5625 C 219.242188 127.785156 204.773438 130.359375 190.71875 135.839844 C 181.894531 139.285156 173.6875 143.882812 166.394531 149.785156 C 145.785156 166.453125 132.613281 187.695312 128.207031 214.03125 C 127.90625 215.820312 127.382812 216.421875 125.449219 216.414062 C 93.074219 216.339844 60.695312 216.359375 28.320312 216.359375 C 25.972656 216.359375 25.898438 216.351562 26.101562 214.046875 C 26.730469 206.859375 27.4375 199.675781 28.875 192.578125 C 29.496094 189.492188 30.238281 186.421875 30.839844 183.332031 C 31.304688 180.933594 32.171875 178.53125 32.75 176.140625 C 34.023438 170.832031 35.605469 165.636719 37.40625 160.492188 C 42.007812 147.328125 48.117188 134.851562 55.269531 122.910156 C 59.773438 115.382812 64.933594 108.285156 70.402344 101.417969 C 77.054688 93.085938 84.46875 85.453125 92.285156 78.25 C 102.871094 68.5 114.535156 60.160156 126.96875 52.902344 C 143.304688 43.378906 160.671875 36.363281 178.980469 31.667969 C 185.15625 30.078125 191.429688 28.980469 197.734375 27.953125 C 207.90625 26.289062 218.117188 25.480469 228.402344 25.421875 C 235.050781 25.382812 241.707031 25.480469 248.328125 26.230469 C 256.25 27.121094 264.179688 28.011719 271.976562 29.796875 C 278.722656 31.335938 285.410156 33.058594 292.015625 35.179688 C 298.851562 37.371094 305.539062 39.933594 312.082031 42.816406 C 320.859375 46.679688 329.277344 51.25 337.410156 56.371094 C 343.5 60.203125 349.390625 64.308594 355.101562 68.664062 C 358.542969 71.292969 361.746094 74.207031 365.003906 77.058594 C 368.917969 80.472656 372.839844 83.867188 376.300781 87.722656 C 379.621094 91.421875 383.035156 95.03125 386.195312 98.886719 C 389.570312 103 392.644531 107.304688 395.800781 111.574219 C 400.550781 117.988281 404.585938 124.820312 408.582031 131.691406 C 412.335938 138.15625 415.53125 144.902344 418.339844 151.785156 C 422.472656 161.90625 425.851562 172.324219 428.226562 183.023438 C 430.066406 191.289062 431.542969 199.609375 432.410156 208.042969 C 432.636719 210.234375 432.402344 212.453125 432.9375 214.625 C 433.296875 216.074219 432.582031 216.398438 431.203125 216.398438 C 414.773438 216.351562 398.347656 216.367188 381.917969 216.367188 Z M 381.910156 216.359375 "/>
<path style=" stroke:none;fill-rule:nonzero;fill:rgb(85.882353%,85.882353%,85.882353%);fill-opacity:1;" d="M 76.941406 243.625 C 93.003906 243.625 109.078125 243.632812 125.140625 243.609375 C 126.632812 243.609375 127.480469 243.421875 127.667969 245.683594 C 127.976562 249.488281 129.136719 253.238281 130.113281 256.976562 C 140.019531 295.148438 171.632812 324.503906 210.507812 331.796875 C 215.875 332.808594 221.242188 333.324219 226.691406 333.59375 C 230.328125 333.773438 233.964844 333.699219 237.507812 333.382812 C 247.507812 332.5 257.277344 330.292969 266.671875 326.621094 C 277.882812 322.242188 288.070312 316.148438 297.097656 308.1875 C 313.992188 293.269531 324.976562 274.820312 329.878906 252.8125 C 330.449219 250.257812 330.832031 247.660156 331.226562 245.070312 C 331.386719 244.042969 331.675781 243.585938 332.875 243.59375 C 365.792969 243.632812 398.699219 243.632812 431.617188 243.59375 C 432.921875 243.59375 433.117188 244.074219 432.957031 245.152344 C 432.246094 250.117188 431.929688 255.125 431.257812 260.097656 C 430.109375 268.558594 428.355469 276.871094 426.144531 285.109375 C 424.308594 291.929688 422.066406 298.625 419.472656 305.199219 C 410.65625 327.558594 398.378906 347.828125 382.351562 365.753906 C 351.863281 399.847656 314.195312 421.570312 269.339844 430.742188 C 263.589844 431.917969 257.792969 432.863281 251.941406 433.484375 C 247.15625 433.992188 242.390625 434.367188 237.585938 434.539062 C 233.027344 434.707031 228.453125 434.765625 223.917969 434.710938 C 219.398438 434.667969 214.824219 434.308594 210.285156 433.882812 C 204.617188 433.351562 199 432.519531 193.433594 431.523438 C 186.257812 430.234375 179.144531 428.558594 172.136719 426.484375 C 142.660156 417.753906 116.421875 403.210938 93.515625 382.730469 C 70.757812 362.378906 53.425781 338.132812 41.5 310.035156 C 36.429688 298.085938 32.546875 285.761719 29.917969 273.039062 C 28.800781 267.644531 27.75 262.246094 27.136719 256.765625 C 26.707031 252.933594 26.296875 249.097656 26.003906 245.25 C 25.898438 243.820312 26.363281 243.601562 27.652344 243.609375 C 44.078125 243.65625 60.507812 243.640625 76.933594 243.640625 Z M 76.941406 243.625 "/>
<path style=" stroke:none;fill-rule:nonzero;fill:rgb(85.882353%,85.882353%,85.882353%);fill-opacity:1;" d="M 229.308594 296.59375 C 195.066406 296.640625 166.640625 270.167969 163.90625 236.472656 C 162.253906 216.226562 168.8125 198.671875 183.191406 184.25 C 194.007812 173.402344 207.210938 167.117188 222.449219 165.636719 C 243.167969 163.621094 261.210938 169.828125 276.078125 184.507812 C 286.960938 195.25 293.28125 208.394531 294.816406 223.570312 C 296.933594 244.523438 290.566406 262.667969 275.6875 277.695312 C 264.773438 288.71875 247.554688 296.976562 229.316406 296.59375 Z M 229.796875 275.75 C 242.238281 275.890625 253.980469 270.164062 261.566406 262.292969 C 271.414062 252.0625 275.464844 239.8125 273.949219 225.75 C 272.832031 215.34375 268.46875 206.402344 260.988281 199.101562 C 250.785156 189.148438 238.460938 185.144531 224.308594 186.476562 C 205.457031 188.25 182.890625 205.488281 184.773438 234.511719 C 186.226562 256.945312 205.351562 275.921875 229.796875 275.757812 Z M 229.796875 275.75 "/>
<path style=" stroke:none;fill-rule:nonzero;fill:rgb(25.882353%,23.137255%,23.137255%);fill-opacity:1;" d="M 229.796875 275.75 C 205.351562 275.921875 186.21875 256.9375 184.773438 234.503906 C 182.890625 205.480469 205.457031 188.242188 224.308594 186.46875 C 238.460938 185.136719 250.792969 189.140625 260.988281 199.09375 C 268.46875 206.394531 272.832031 215.335938 273.949219 225.742188 C 275.457031 239.804688 271.414062 252.046875 261.566406 262.285156 C 253.980469 270.164062 242.238281 275.882812 229.796875 275.742188 Z M 229.59375 201.242188 C 212.5625 200.65625 199.550781 215.050781 199.503906 230.386719 C 199.453125 247.277344 212.007812 259.769531 227.757812 260.832031 C 243.125 261.871094 260.449219 250.058594 259.242188 228.25 C 258.433594 213.664062 245.011719 200.476562 229.601562 201.234375 Z M 229.59375 201.242188 "/>
<path style=" stroke:none;fill-rule:nonzero;fill:rgb(85.882353%,85.882353%,85.882353%);fill-opacity:1;" d="M 229.59375 201.242188 C 245.011719 200.484375 258.433594 213.671875 259.234375 228.257812 C 260.441406 250.0625 243.117188 261.878906 227.75 260.839844 C 212 259.777344 199.445312 247.285156 199.496094 230.394531 C 199.542969 215.058594 212.554688 200.664062 229.585938 201.25 Z M 229.59375 201.242188 "/>
</g>
</svg>
