<svg width="250" height="250" viewBox="0 0 250 250" fill="none" xmlns="http://www.w3.org/2000/svg">
<path d="M213.6 36.6031C164.796 -12.201 85.8959 -12.201 37.3629 36.6031C-11.1702 85.4073 -11.4413 164.307 37.3629 212.841C86.1671 261.374 165.067 261.645 213.6 212.841C262.133 164.036 262.133 85.4073 213.6 36.6031ZM99.7238 99.2352C113.823 85.1357 136.869 85.1357 150.968 99.2352C165.068 113.335 165.068 136.38 150.968 150.48C136.869 164.579 113.823 164.579 99.7238 150.48C85.6243 136.382 85.6243 113.335 99.7238 99.2352ZM200.315 199.826C159.068 241.073 92.6256 241.308 51.0911 200.533C50.697 200.146 50.6939 199.509 51.0844 199.119L87.0873 163.116C87.4778 162.726 88.1128 162.729 88.5106 163.112C109.172 183.012 142.258 182.778 162.627 162.409C182.996 142.04 183.23 108.954 163.33 88.2922C162.947 87.8944 162.944 87.2594 163.335 86.8688L199.608 50.5954C199.999 50.2048 200.635 50.2079 201.022 50.6021C241.797 92.1365 241.562 158.579 200.315 199.826L200.315 199.826Z" fill="#1F1F1F"/>
</svg>
