<?xml version="1.0" encoding="UTF-8"?>
<svg id="Camada_2" data-name="Camada 2" xmlns="http://www.w3.org/2000/svg" viewBox="0 0 611.91 614.31">
  <defs>
    <style>
      .cls-1 {
        fill: #ff6b57;
      }

      .cls-2 {
        fill: #dbdbdb;
      }

      .cls-3 {
        fill: #423b3b;
      }
    </style>
  </defs>
  <g id="Camada_1-2" data-name="Camada 1">
    <g>
      <path class="cls-3" d="m289.88,0h31.68c1.06.99,2.37,1.04,3.71,1.01,6.34-.15,12.61.85,18.88,1.53,6.65.72,13.25,1.92,19.84,3.18,11.51,2.21,22.86,4.98,34.02,8.48,11.87,3.73,23.53,8.11,34.82,13.35,62.45,29.04,110.12,73.85,143.03,134.34,6.46,11.87,11.89,24.21,16.63,36.85,2.16,5.75,4.11,11.58,5.91,17.45,1.72,5.65,3.27,11.35,4.67,17.1,1.49,6.14,2.84,12.31,3.94,18.51.88,4.97,1.54,9.98,2.11,15.01.72,6.35,1.63,12.67,1.78,19.07.04,1.87.3,3.69,1.02,5.42v31.68c-.67,1.66-1.12,3.39-.99,5.18.25,3.6-.3,7.16-.65,10.7-.74,7.47-1.84,14.9-3.13,22.3-1.41,8.07-3.05,16.07-5.07,23.99-2.49,9.77-5.6,19.35-9.06,28.83-3.43,9.39-7.22,18.62-11.66,27.57-33.71,67.93-85.24,117.25-154.63,147.87-15.41,6.8-31.38,12.04-47.7,16.05-8.47,2.08-17.03,3.92-25.74,5.06-6.38.84-12.76,1.89-19.15,2.64-6.86.8-13.82.78-20.73,1.12h-14.88c-5.69-.76-11.44-.39-17.16-.94-5.88-.56-11.72-1.32-17.59-1.96-7.83-.86-15.53-2.43-23.19-4.1-7.4-1.62-14.74-3.52-22.01-5.73-8.55-2.61-17.07-5.35-25.36-8.64-7.76-3.07-15.38-6.55-22.84-10.35-74.51-37.97-125.73-96.45-153.94-175.08-3.98-11.08-6.88-22.51-9.45-34.03-2.09-9.35-3.7-18.76-4.89-28.23-.83-6.56-1.73-13.18-1.58-19.85.02-.79.38-1.77-.5-2.42v-31.68c1.34-3.31.32-6.83.92-10.26.92-5.26.78-10.71,1.61-16,1.17-7.47,2.49-14.92,4-22.34,1.71-8.4,3.95-16.64,6.32-24.84,2.66-9.19,5.95-18.17,9.61-27.03,22.1-53.65,56.55-97.64,103.24-132.02,33.46-24.64,70.66-41.28,110.96-50.99,8.34-2.01,16.85-3.38,25.39-4.54,7.86-1.07,15.71-1.88,23.62-2.32,1.42-.08,2.95-.07,4.21-.97Zm219.4,288.94c21.92,0,43.83-.02,65.75.04,1.84,0,2.79-.43,2.31-2.37-.71-2.9-.4-5.86-.7-8.79-1.17-11.26-3.13-22.37-5.58-33.41-3.17-14.29-7.68-28.19-13.19-41.72-3.75-9.19-8.01-18.2-13.02-26.83-5.33-9.18-10.71-18.3-17.05-26.87-4.21-5.69-8.31-11.44-12.81-16.94-4.22-5.15-8.77-9.97-13.2-14.91-4.62-5.15-9.85-9.69-15.07-14.24-4.35-3.8-8.63-7.7-13.21-11.21-7.62-5.82-15.48-11.3-23.6-16.42-10.84-6.83-22.08-12.94-33.79-18.1-8.73-3.85-17.65-7.27-26.77-10.2-8.81-2.83-17.73-5.13-26.73-7.19-10.4-2.37-20.97-3.57-31.55-4.76-8.83-.99-17.71-1.13-26.58-1.08-13.72.08-27.33,1.16-40.91,3.38-8.41,1.37-16.78,2.85-25.02,4.96-24.42,6.27-47.58,15.64-69.38,28.36-16.6,9.69-32.16,20.83-46.27,33.85-10.43,9.61-20.32,19.8-29.19,30.94-7.31,9.17-14.18,18.65-20.19,28.7-9.54,15.95-17.69,32.6-23.83,50.19-2.4,6.87-4.51,13.81-6.21,20.9-.76,3.19-1.92,6.39-2.55,9.6-.8,4.13-1.79,8.23-2.62,12.35-1.92,9.48-2.85,19.07-3.7,28.67-.27,3.08-.16,3.09,2.96,3.09,43.19,0,86.38-.03,129.57.07,2.58,0,3.28-.79,3.68-3.18,5.88-35.17,23.45-63.54,50.94-85.8,9.74-7.89,20.68-14.03,32.45-18.62,18.75-7.32,38.05-10.76,58.23-9.72,9.09.47,18.02,1.61,26.79,3.77,22.41,5.52,42.17,16.2,59.14,31.79,23.29,21.39,37.6,47.78,42.78,79.02.36,2.16,1.11,2.74,3.32,2.73,21.6-.1,43.19-.06,64.79-.06Zm-406.84,36.41c-21.91,0-43.83.02-65.74-.04-1.72,0-2.34.28-2.2,2.19.39,5.14.94,10.26,1.51,15.38.81,7.32,2.22,14.53,3.71,21.73,3.51,16.98,8.68,33.45,15.45,49.41,15.9,37.52,39.03,69.9,69.39,97.08,30.56,27.35,65.56,46.78,104.88,58.43,9.35,2.77,18.83,5.02,28.41,6.73,7.43,1.33,14.92,2.44,22.48,3.15,6.06.57,12.16,1.05,18.19,1.11,6.05.06,12.15-.01,18.23-.23,6.41-.23,12.77-.73,19.15-1.41,7.81-.83,15.54-2.09,23.21-3.66,59.84-12.25,110.1-41.26,150.76-86.79,21.38-23.94,37.76-51.01,49.52-80.87,3.46-8.78,6.45-17.71,8.9-26.83,2.95-10.99,5.29-22.09,6.82-33.4.9-6.65,1.32-13.33,2.27-19.96.21-1.43-.05-2.08-1.79-2.08-43.91.05-87.81.05-131.72,0-1.6,0-1.99.6-2.2,1.97-.53,3.46-1.04,6.93-1.8,10.34-6.54,29.4-21.19,54.03-43.73,73.95-12.04,10.64-25.63,18.77-40.59,24.62-12.53,4.9-25.55,7.85-38.9,9.03-4.73.42-9.58.52-14.43.28-7.27-.36-14.43-1.06-21.59-2.4-51.86-9.75-94.03-48.94-107.25-99.92-1.29-4.98-2.85-10-3.26-15.08-.24-3.02-1.37-2.78-3.37-2.77-21.43.03-42.87.02-64.3.02Zm203.26,70.74c24.33.5,47.3-10.52,61.86-25.24,19.85-20.06,28.35-44.3,25.52-72.28-2.05-20.27-10.48-37.82-25-52.17-19.83-19.6-43.89-27.89-71.54-25.2-20.33,1.98-37.93,10.37-52.37,24.86-19.19,19.26-27.93,42.7-25.73,69.74,3.66,45,41.58,80.35,87.25,80.29Z"/>
      <path class="cls-1" d="m509.27,288.94c-21.6,0-43.19-.04-64.79.06-2.21.01-2.96-.57-3.32-2.73-5.19-31.24-19.5-57.63-42.78-79.02-16.97-15.59-36.73-26.27-59.14-31.79-8.77-2.16-17.7-3.31-26.79-3.77-20.18-1.04-39.48,2.4-58.23,9.72-11.77,4.6-22.72,10.74-32.45,18.62-27.49,22.26-45.06,50.63-50.94,85.8-.4,2.39-1.1,3.19-3.68,3.18-43.19-.1-86.38-.07-129.57-.07-3.13,0-3.23-.01-2.96-3.09.84-9.6,1.78-19.19,3.7-28.67.83-4.12,1.82-8.22,2.62-12.35.62-3.2,1.78-6.41,2.55-9.6,1.7-7.09,3.81-14.03,6.21-20.9,6.14-17.58,14.29-34.24,23.83-50.19,6.01-10.05,12.89-19.53,20.19-28.7,8.87-11.13,18.76-21.32,29.19-30.94,14.12-13.02,29.68-24.16,46.27-33.85,21.79-12.72,44.96-22.09,69.38-28.36,8.24-2.12,16.61-3.59,25.02-4.96,13.57-2.22,27.19-3.3,40.91-3.38,8.87-.05,17.75.08,26.58,1.08,10.57,1.19,21.15,2.38,31.55,4.76,9,2.06,17.92,4.36,26.73,7.19,9.12,2.93,18.04,6.35,26.77,10.2,11.71,5.16,22.94,11.26,33.79,18.1,8.12,5.12,15.98,10.6,23.6,16.42,4.59,3.51,8.86,7.4,13.21,11.21,5.22,4.56,10.45,9.09,15.07,14.24,4.43,4.94,8.98,9.76,13.2,14.91,4.5,5.49,8.6,11.24,12.81,16.94,6.34,8.57,11.72,17.69,17.05,26.87,5.01,8.63,9.27,17.64,13.02,26.83,5.51,13.52,10.02,27.43,13.19,41.72,2.45,11.04,4.42,22.15,5.58,33.41.3,2.93-.01,5.89.7,8.79.48,1.94-.47,2.37-2.31,2.37-21.92-.06-43.83-.04-65.75-.04Z"/>
      <path class="cls-2" d="m102.44,325.35c21.43,0,42.87.01,64.3-.02,1.99,0,3.12-.25,3.37,2.77.41,5.08,1.96,10.09,3.26,15.08,13.22,50.98,55.39,90.18,107.25,99.92,7.16,1.35,14.32,2.04,21.59,2.4,4.85.24,9.7.14,14.43-.28,13.34-1.18,26.37-4.13,38.9-9.03,14.96-5.85,28.55-13.99,40.59-24.62,22.54-19.92,37.19-44.56,43.73-73.95.76-3.41,1.27-6.88,1.8-10.34.21-1.37.6-1.98,2.2-1.97,43.91.05,87.81.05,131.72,0,1.74,0,2,.64,1.79,2.08-.95,6.63-1.37,13.32-2.27,19.96-1.53,11.3-3.87,22.4-6.82,33.4-2.45,9.11-5.44,18.05-8.9,26.83-11.76,29.86-28.14,56.93-49.52,80.87-40.67,45.53-90.92,74.54-150.76,86.79-7.67,1.57-15.4,2.83-23.21,3.66-6.38.68-12.74,1.18-19.15,1.41-6.08.22-12.18.3-18.23.23-6.03-.06-12.13-.54-18.19-1.11-7.56-.71-15.05-1.82-22.48-3.15-9.57-1.72-19.06-3.96-28.41-6.73-39.32-11.66-74.32-31.08-104.88-58.43-30.36-27.18-53.48-59.56-69.39-97.08-6.76-15.96-11.94-32.42-15.45-49.41-1.49-7.2-2.89-14.41-3.71-21.73-.57-5.12-1.12-10.24-1.51-15.38-.14-1.91.48-2.2,2.2-2.19,21.91.06,43.83.04,65.74.04Z"/>
      <path class="cls-2" d="m305.7,396.09c-45.68.06-83.6-35.29-87.25-80.29-2.2-27.04,6.55-50.48,25.73-69.74,14.43-14.49,32.04-22.88,52.37-24.86,27.64-2.69,51.71,5.6,71.54,25.2,14.52,14.35,22.95,31.9,25,52.17,2.82,27.98-5.67,52.21-25.52,72.28-14.56,14.72-37.53,25.75-61.86,25.24Zm.65-27.84c16.6.19,32.26-7.46,42.38-17.97,13.14-13.66,18.54-30.02,16.52-48.8-1.49-13.9-7.31-25.84-17.29-35.59-13.61-13.29-30.05-18.64-48.93-16.86-25.15,2.37-55.25,25.39-52.74,64.15,1.94,29.96,27.45,55.3,60.06,55.08Z"/>
      <path class="cls-3" d="m306.35,368.25c-32.61.23-58.13-25.12-60.06-55.08-2.51-38.76,27.59-61.78,52.74-64.15,18.88-1.78,35.33,3.57,48.93,16.86,9.98,9.75,15.8,21.69,17.29,35.59,2.01,18.78-3.38,35.13-16.52,48.8-10.12,10.52-25.78,18.16-42.38,17.97Zm-.27-99.5c-22.72-.78-40.08,18.44-40.14,38.92-.07,22.56,16.68,39.24,37.69,40.66,20.5,1.39,43.61-14.39,42-43.51-1.08-19.48-18.98-37.09-39.54-36.08Z"/>
      <path class="cls-2" d="m306.08,268.75c20.57-1.01,38.47,16.6,39.54,36.08,1.61,29.12-21.5,44.9-42,43.51-21.01-1.42-37.76-18.1-37.69-40.66.06-20.48,17.42-39.7,40.14-38.92Z"/>
    </g>
  </g>
</svg>